<?xml version="1.0" encoding="UTF-8"?>
<svg id="Layer_1" data-name="Layer 1" xmlns="http://www.w3.org/2000/svg" viewBox="0 0 500 500">
  <defs>
    <style>
      .cls-1 {
        fill-rule: evenodd;
      }
    </style>
  </defs>
  <path class="cls-1" d="m249.999,6.165c6.119,0,11.082,4.959,11.082,11.078s-4.963,11.082-11.082,11.082-11.082-4.959-11.082-11.082,4.963-11.078,11.082-11.078"/>
  <path class="cls-1" d="m382.997,6.165c6.119,0,11.082,4.959,11.082,11.078s-4.963,11.082-11.082,11.082-11.078-4.959-11.078-11.082,4.959-11.078,11.078-11.078"/>
  <path class="cls-1" d="m117.001,6.165c6.119,0,11.078,4.959,11.078,11.078s-4.959,11.082-11.078,11.082-11.082-4.959-11.082-11.082,4.963-11.078,11.082-11.078"/>
  <path class="cls-1" d="m249.999,139.163c6.119,0,11.082,4.963,11.082,11.082s-4.963,11.082-11.082,11.082-11.082-4.963-11.082-11.082,4.963-11.082,11.082-11.082"/>
  <path class="cls-1" d="m382.997,139.163c6.119,0,11.082,4.963,11.082,11.082s-4.963,11.082-11.082,11.082-11.078-4.963-11.078-11.082,4.959-11.082,11.078-11.082"/>
  <path class="cls-1" d="m117.001,139.163c6.119,0,11.078,4.963,11.078,11.082s-4.959,11.082-11.078,11.082-11.082-4.963-11.082-11.082,4.963-11.082,11.082-11.082"/>
  <path class="cls-1" d="m249.999,405.17c6.119,0,11.082,4.959,11.082,11.078s-4.963,11.082-11.082,11.082-11.082-4.963-11.082-11.082,4.963-11.078,11.082-11.078"/>
  <path class="cls-1" d="m382.997,405.17c6.119,0,11.082,4.959,11.082,11.078s-4.963,11.082-11.082,11.082-11.078-4.963-11.078-11.082,4.959-11.078,11.078-11.078"/>
  <path class="cls-1" d="m117.001,405.17c6.119,0,11.078,4.959,11.078,11.078s-4.959,11.082-11.078,11.082-11.082-4.963-11.082-11.082,4.963-11.078,11.082-11.078"/>
  <path class="cls-1" d="m449.502,6.165c6.119,0,11.078,4.959,11.078,11.078s-4.959,11.082-11.078,11.082-11.082-4.959-11.082-11.082,4.963-11.078,11.082-11.078"/>
  <path class="cls-1" d="m183.495,6.165c6.119,0,11.078,4.959,11.078,11.078s-4.959,11.082-11.078,11.082-11.082-4.959-11.082-11.082,4.963-11.078,11.082-11.078"/>
  <path class="cls-1" d="m316.503,6.165c6.119,0,11.082,4.959,11.082,11.078s-4.963,11.082-11.082,11.082-11.078-4.959-11.078-11.082,4.959-11.078,11.078-11.078"/>
  <path class="cls-1" d="m50.496,6.165c6.119,0,11.082,4.959,11.082,11.078s-4.963,11.082-11.082,11.082-11.078-4.959-11.078-11.082,4.959-11.078,11.078-11.078"/>
  <path class="cls-1" d="m449.502,272.162c6.119,0,11.078,4.959,11.078,11.078s-4.959,11.082-11.078,11.082-11.082-4.959-11.082-11.082,4.963-11.078,11.082-11.078"/>
  <path class="cls-1" d="m50.496,272.162c6.119,0,11.082,4.959,11.082,11.078s-4.963,11.082-11.082,11.082-11.078-4.959-11.078-11.082,4.959-11.078,11.078-11.078"/>
  <path class="cls-1" d="m449.502,139.163c6.119,0,11.078,4.963,11.078,11.082s-4.959,11.082-11.078,11.082-11.082-4.963-11.082-11.082,4.963-11.082,11.082-11.082"/>
  <path class="cls-1" d="m183.495,139.163c6.119,0,11.078,4.963,11.078,11.082s-4.959,11.082-11.078,11.082-11.082-4.963-11.082-11.082,4.963-11.082,11.082-11.082"/>
  <path class="cls-1" d="m50.496,139.163c6.119,0,11.082,4.963,11.082,11.082s-4.963,11.082-11.082,11.082-11.078-4.963-11.078-11.082,4.959-11.082,11.078-11.082"/>
  <path class="cls-1" d="m449.502,405.17c6.119,0,11.078,4.959,11.078,11.078s-4.959,11.082-11.078,11.082-11.082-4.963-11.082-11.082,4.963-11.078,11.082-11.078"/>
  <path class="cls-1" d="m183.495,405.17c6.119,0,11.078,4.959,11.078,11.078s-4.959,11.082-11.078,11.082-11.082-4.963-11.082-11.082,4.963-11.078,11.082-11.078"/>
  <path class="cls-1" d="m316.503,405.17c6.119,0,11.082,4.959,11.082,11.078s-4.963,11.082-11.082,11.082-11.078-4.963-11.078-11.082,4.959-11.078,11.078-11.078"/>
  <path class="cls-1" d="m50.496,405.17c6.119,0,11.082,4.959,11.082,11.078s-4.963,11.082-11.082,11.082-11.078-4.963-11.078-11.082,4.959-11.078,11.078-11.078"/>
  <path class="cls-1" d="m482.758,6.165c6.119,0,11.078,4.959,11.078,11.078s-4.959,11.082-11.078,11.082-11.082-4.959-11.082-11.082,4.959-11.078,11.082-11.078"/>
  <path class="cls-1" d="m216.752,6.165c6.119,0,11.078,4.959,11.078,11.078s-4.959,11.082-11.078,11.082-11.082-4.959-11.082-11.082,4.959-11.078,11.082-11.078"/>
  <path class="cls-1" d="m349.75,6.165c6.119,0,11.082,4.959,11.082,11.078s-4.963,11.082-11.082,11.082-11.082-4.959-11.082-11.082,4.963-11.078,11.082-11.078"/>
  <path class="cls-1" d="m83.744,6.165c6.119,0,11.078,4.959,11.078,11.078s-4.959,11.082-11.078,11.082-11.082-4.959-11.082-11.082,4.963-11.078,11.082-11.078"/>
  <path class="cls-1" d="m482.758,272.162c6.119,0,11.078,4.959,11.078,11.078s-4.959,11.082-11.078,11.082-11.082-4.959-11.082-11.082,4.959-11.078,11.082-11.078"/>
  <path class="cls-1" d="m482.758,139.163c6.119,0,11.078,4.963,11.078,11.082s-4.959,11.082-11.078,11.082-11.082-4.963-11.082-11.082,4.959-11.082,11.082-11.082"/>
  <path class="cls-1" d="m216.752,139.163c6.119,0,11.078,4.963,11.078,11.082s-4.959,11.082-11.078,11.082-11.082-4.963-11.082-11.082,4.959-11.082,11.082-11.082"/>
  <path class="cls-1" d="m349.75,139.163c6.119,0,11.082,4.963,11.082,11.082s-4.963,11.082-11.082,11.082-11.082-4.963-11.082-11.082,4.963-11.082,11.082-11.082"/>
  <path class="cls-1" d="m83.744,139.163c6.119,0,11.078,4.963,11.078,11.082s-4.959,11.082-11.078,11.082-11.082-4.963-11.082-11.082,4.963-11.082,11.082-11.082"/>
  <path class="cls-1" d="m482.758,405.17c6.119,0,11.078,4.959,11.078,11.078s-4.959,11.082-11.078,11.082-11.082-4.963-11.082-11.082,4.959-11.078,11.082-11.078"/>
  <path class="cls-1" d="m216.752,405.17c6.119,0,11.078,4.959,11.078,11.078s-4.959,11.082-11.078,11.082-11.082-4.963-11.082-11.082,4.959-11.078,11.082-11.078"/>
  <path class="cls-1" d="m349.75,405.17c6.119,0,11.082,4.959,11.082,11.078s-4.963,11.082-11.082,11.082-11.082-4.963-11.082-11.082,4.963-11.078,11.082-11.078"/>
  <path class="cls-1" d="m83.744,405.17c6.119,0,11.078,4.959,11.078,11.078s-4.959,11.082-11.078,11.082-11.082-4.963-11.082-11.082,4.963-11.078,11.082-11.078"/>
  <path class="cls-1" d="m416.254,6.165c6.119,0,11.082,4.959,11.082,11.078s-4.963,11.082-11.082,11.082-11.078-4.959-11.078-11.082,4.959-11.078,11.078-11.078"/>
  <path class="cls-1" d="m150.248,6.165c6.119,0,11.082,4.959,11.082,11.078s-4.963,11.082-11.082,11.082-11.082-4.959-11.082-11.082,4.963-11.078,11.082-11.078"/>
  <path class="cls-1" d="m283.246,6.165c6.123,0,11.082,4.959,11.082,11.078s-4.959,11.082-11.082,11.082-11.078-4.959-11.078-11.082,4.959-11.078,11.078-11.078"/>
  <path class="cls-1" d="m17.242,6.165c6.123,0,11.082,4.959,11.082,11.078s-4.959,11.082-11.082,11.082-11.078-4.959-11.078-11.082,4.959-11.078,11.078-11.078"/>
  <path class="cls-1" d="m416.254,272.162c6.119,0,11.082,4.959,11.082,11.078s-4.963,11.082-11.082,11.082-11.078-4.959-11.078-11.082,4.959-11.078,11.078-11.078"/>
  <path class="cls-1" d="m17.242,272.162c6.123,0,11.082,4.959,11.082,11.078s-4.959,11.082-11.082,11.082-11.078-4.959-11.078-11.082,4.959-11.078,11.078-11.078"/>
  <path class="cls-1" d="m416.254,139.163c6.119,0,11.082,4.963,11.082,11.082s-4.963,11.082-11.082,11.082-11.078-4.963-11.078-11.082,4.959-11.082,11.078-11.082"/>
  <path class="cls-1" d="m150.248,139.163c6.119,0,11.082,4.963,11.082,11.082s-4.963,11.082-11.082,11.082-11.082-4.963-11.082-11.082,4.963-11.082,11.082-11.082"/>
  <path class="cls-1" d="m17.242,139.163c6.123,0,11.082,4.963,11.082,11.082s-4.959,11.082-11.082,11.082-11.078-4.963-11.078-11.082,4.959-11.082,11.078-11.082"/>
  <path class="cls-1" d="m416.254,405.17c6.119,0,11.082,4.959,11.082,11.078s-4.963,11.082-11.082,11.082-11.078-4.963-11.078-11.082,4.959-11.078,11.078-11.078"/>
  <path class="cls-1" d="m150.248,405.17c6.119,0,11.082,4.959,11.082,11.078s-4.963,11.082-11.082,11.082-11.082-4.963-11.082-11.082,4.963-11.078,11.082-11.078"/>
  <path class="cls-1" d="m283.246,405.17c6.123,0,11.082,4.959,11.082,11.078s-4.959,11.082-11.082,11.082-11.078-4.963-11.078-11.082,4.959-11.078,11.078-11.078"/>
  <path class="cls-1" d="m17.242,405.17c6.123,0,11.082,4.959,11.082,11.078s-4.959,11.082-11.082,11.082-11.078-4.963-11.078-11.082,4.959-11.078,11.078-11.078"/>
  <path class="cls-1" d="m249.999,39.412c6.119,0,11.082,4.959,11.082,11.078s-4.963,11.082-11.082,11.082-11.082-4.963-11.082-11.082,4.963-11.078,11.082-11.078"/>
  <path class="cls-1" d="m382.997,39.412c6.119,0,11.082,4.959,11.082,11.078s-4.963,11.082-11.082,11.082-11.078-4.963-11.078-11.082,4.959-11.078,11.078-11.078"/>
  <path class="cls-1" d="m117.001,39.412c6.119,0,11.078,4.959,11.078,11.078s-4.959,11.082-11.078,11.082-11.082-4.963-11.082-11.082,4.963-11.078,11.082-11.078"/>
  <path class="cls-1" d="m249.999,305.419c6.119,0,11.082,4.959,11.082,11.078s-4.963,11.082-11.082,11.082-11.082-4.963-11.082-11.082,4.963-11.078,11.082-11.078"/>
  <path class="cls-1" d="m382.997,305.419c6.119,0,11.082,4.959,11.082,11.078s-4.963,11.082-11.082,11.082-11.078-4.963-11.078-11.082,4.959-11.078,11.078-11.078"/>
  <path class="cls-1" d="m117.001,305.419c6.119,0,11.078,4.959,11.078,11.078s-4.959,11.082-11.078,11.082-11.082-4.963-11.082-11.082,4.963-11.078,11.082-11.078"/>
  <path class="cls-1" d="m249.999,172.411c6.119,0,11.082,4.963,11.082,11.082s-4.963,11.078-11.082,11.078-11.082-4.959-11.082-11.078,4.963-11.082,11.082-11.082"/>
  <path class="cls-1" d="m382.997,172.411c6.119,0,11.082,4.963,11.082,11.082s-4.963,11.078-11.082,11.078-11.078-4.959-11.078-11.078,4.959-11.082,11.078-11.082"/>
  <path class="cls-1" d="m117.001,172.411c6.119,0,11.078,4.963,11.078,11.082s-4.959,11.078-11.078,11.078-11.082-4.959-11.082-11.078,4.963-11.082,11.082-11.082"/>
  <path class="cls-1" d="m249.999,438.417c6.119,0,11.082,4.963,11.082,11.082s-4.963,11.078-11.082,11.078-11.082-4.959-11.082-11.078,4.963-11.082,11.082-11.082"/>
  <path class="cls-1" d="m382.997,438.417c6.119,0,11.082,4.963,11.082,11.082s-4.963,11.078-11.082,11.078-11.078-4.959-11.078-11.078,4.959-11.082,11.078-11.082"/>
  <path class="cls-1" d="m117.001,438.417c6.119,0,11.078,4.963,11.078,11.082s-4.959,11.078-11.078,11.078-11.082-4.959-11.082-11.078,4.963-11.082,11.082-11.082"/>
  <path class="cls-1" d="m449.502,39.412c6.119,0,11.078,4.959,11.078,11.078s-4.959,11.082-11.078,11.082-11.082-4.963-11.082-11.082,4.963-11.078,11.082-11.078"/>
  <path class="cls-1" d="m183.495,39.412c6.119,0,11.078,4.959,11.078,11.078s-4.959,11.082-11.078,11.082-11.082-4.963-11.082-11.082,4.963-11.078,11.082-11.078"/>
  <path class="cls-1" d="m316.503,39.412c6.119,0,11.082,4.959,11.082,11.078s-4.963,11.082-11.082,11.082-11.078-4.963-11.078-11.082,4.959-11.078,11.078-11.078"/>
  <path class="cls-1" d="m50.496,39.412c6.119,0,11.082,4.959,11.082,11.078s-4.963,11.082-11.082,11.082-11.078-4.963-11.078-11.082,4.959-11.078,11.078-11.078"/>
  <path class="cls-1" d="m449.502,305.419c6.119,0,11.078,4.959,11.078,11.078s-4.959,11.082-11.078,11.082-11.082-4.963-11.082-11.082,4.963-11.078,11.082-11.078"/>
  <path class="cls-1" d="m183.495,305.419c6.119,0,11.078,4.959,11.078,11.078s-4.959,11.082-11.078,11.082-11.082-4.963-11.082-11.082,4.963-11.078,11.082-11.078"/>
  <path class="cls-1" d="m50.496,305.419c6.119,0,11.082,4.959,11.082,11.078s-4.963,11.082-11.082,11.082-11.078-4.963-11.078-11.082,4.959-11.078,11.078-11.078"/>
  <path class="cls-1" d="m449.502,172.411c6.119,0,11.078,4.963,11.078,11.082s-4.959,11.078-11.078,11.078-11.082-4.959-11.082-11.078,4.963-11.082,11.082-11.082"/>
  <path class="cls-1" d="m183.495,172.411c6.119,0,11.078,4.963,11.078,11.082s-4.959,11.078-11.078,11.078-11.082-4.959-11.082-11.078,4.963-11.082,11.082-11.082"/>
  <path class="cls-1" d="m50.496,172.411c6.119,0,11.082,4.963,11.082,11.082s-4.963,11.078-11.082,11.078-11.078-4.959-11.078-11.078,4.959-11.082,11.078-11.082"/>
  <path class="cls-1" d="m449.502,438.417c6.119,0,11.078,4.963,11.078,11.082s-4.959,11.078-11.078,11.078-11.082-4.959-11.082-11.078,4.963-11.082,11.082-11.082"/>
  <path class="cls-1" d="m183.495,438.417c6.119,0,11.078,4.963,11.078,11.082s-4.959,11.078-11.078,11.078-11.082-4.959-11.082-11.078,4.963-11.082,11.082-11.082"/>
  <path class="cls-1" d="m316.503,438.417c6.119,0,11.082,4.963,11.082,11.082s-4.963,11.078-11.082,11.078-11.078-4.959-11.078-11.078,4.959-11.082,11.078-11.082"/>
  <path class="cls-1" d="m50.496,438.417c6.119,0,11.082,4.963,11.082,11.082s-4.963,11.078-11.082,11.078-11.078-4.959-11.078-11.078,4.959-11.082,11.078-11.082"/>
  <path class="cls-1" d="m482.758,39.412c6.119,0,11.078,4.959,11.078,11.078s-4.959,11.082-11.078,11.082-11.082-4.963-11.082-11.082,4.959-11.078,11.082-11.078"/>
  <path class="cls-1" d="m216.752,39.412c6.119,0,11.078,4.959,11.078,11.078s-4.959,11.082-11.078,11.082-11.082-4.963-11.082-11.082,4.959-11.078,11.082-11.078"/>
  <path class="cls-1" d="m349.75,39.412c6.119,0,11.082,4.959,11.082,11.078s-4.963,11.082-11.082,11.082-11.082-4.963-11.082-11.082,4.963-11.078,11.082-11.078"/>
  <path class="cls-1" d="m83.744,39.412c6.119,0,11.078,4.959,11.078,11.078s-4.959,11.082-11.078,11.082-11.082-4.963-11.082-11.082,4.963-11.078,11.082-11.078"/>
  <path class="cls-1" d="m482.758,305.419c6.119,0,11.078,4.959,11.078,11.078s-4.959,11.082-11.078,11.082-11.082-4.963-11.082-11.082,4.959-11.078,11.082-11.078"/>
  <path class="cls-1" d="m216.752,305.419c6.119,0,11.078,4.959,11.078,11.078s-4.959,11.082-11.078,11.082-11.082-4.963-11.082-11.082,4.959-11.078,11.082-11.078"/>
  <path class="cls-1" d="m83.744,305.419c6.119,0,11.078,4.959,11.078,11.078s-4.959,11.082-11.078,11.082-11.082-4.963-11.082-11.082,4.963-11.078,11.082-11.078"/>
  <path class="cls-1" d="m482.758,172.411c6.119,0,11.078,4.963,11.078,11.082s-4.959,11.078-11.078,11.078-11.082-4.959-11.082-11.078,4.959-11.082,11.082-11.082"/>
  <path class="cls-1" d="m216.752,172.411c6.119,0,11.078,4.963,11.078,11.082s-4.959,11.078-11.078,11.078-11.082-4.959-11.082-11.078,4.959-11.082,11.082-11.082"/>
  <path class="cls-1" d="m83.744,172.411c6.119,0,11.078,4.963,11.078,11.082s-4.959,11.078-11.078,11.078-11.082-4.959-11.082-11.078,4.963-11.082,11.082-11.082"/>
  <path class="cls-1" d="m482.758,438.417c6.119,0,11.078,4.963,11.078,11.082s-4.959,11.078-11.078,11.078-11.082-4.959-11.082-11.078,4.959-11.082,11.082-11.082"/>
  <path class="cls-1" d="m216.752,438.417c6.119,0,11.078,4.963,11.078,11.082s-4.959,11.078-11.078,11.078-11.082-4.959-11.082-11.078,4.959-11.082,11.082-11.082"/>
  <path class="cls-1" d="m349.75,438.417c6.119,0,11.082,4.963,11.082,11.082s-4.963,11.078-11.082,11.078-11.082-4.959-11.082-11.078,4.963-11.082,11.082-11.082"/>
  <path class="cls-1" d="m83.744,438.417c6.119,0,11.078,4.963,11.078,11.082s-4.959,11.078-11.078,11.078-11.082-4.959-11.082-11.078,4.963-11.082,11.082-11.082"/>
  <path class="cls-1" d="m416.254,39.412c6.119,0,11.082,4.959,11.082,11.078s-4.963,11.082-11.082,11.082-11.078-4.963-11.078-11.082,4.959-11.078,11.078-11.078"/>
  <path class="cls-1" d="m150.248,39.412c6.119,0,11.082,4.959,11.082,11.078s-4.963,11.082-11.082,11.082-11.082-4.963-11.082-11.082,4.963-11.078,11.082-11.078"/>
  <path class="cls-1" d="m283.246,39.412c6.123,0,11.082,4.959,11.082,11.078s-4.959,11.082-11.082,11.082-11.078-4.963-11.078-11.082,4.959-11.078,11.078-11.078"/>
  <path class="cls-1" d="m17.242,39.412c6.123,0,11.082,4.959,11.082,11.078s-4.959,11.082-11.082,11.082-11.078-4.963-11.078-11.082,4.959-11.078,11.078-11.078"/>
  <path class="cls-1" d="m416.254,305.419c6.119,0,11.082,4.959,11.082,11.078s-4.963,11.082-11.082,11.082-11.078-4.963-11.078-11.082,4.959-11.078,11.078-11.078"/>
  <path class="cls-1" d="m150.248,305.419c6.119,0,11.082,4.959,11.082,11.078s-4.963,11.082-11.082,11.082-11.082-4.963-11.082-11.082,4.963-11.078,11.082-11.078"/>
  <path class="cls-1" d="m17.242,305.419c6.123,0,11.082,4.959,11.082,11.078s-4.959,11.082-11.082,11.082-11.078-4.963-11.078-11.082,4.959-11.078,11.078-11.078"/>
  <path class="cls-1" d="m416.254,172.411c6.119,0,11.082,4.963,11.082,11.082s-4.963,11.078-11.082,11.078-11.078-4.959-11.078-11.078,4.959-11.082,11.078-11.082"/>
  <path class="cls-1" d="m150.248,172.411c6.119,0,11.082,4.963,11.082,11.082s-4.963,11.078-11.082,11.078-11.082-4.959-11.082-11.078,4.963-11.082,11.082-11.082"/>
  <path class="cls-1" d="m17.242,172.411c6.123,0,11.082,4.963,11.082,11.082s-4.959,11.078-11.082,11.078-11.078-4.959-11.078-11.078,4.959-11.082,11.078-11.082"/>
  <path class="cls-1" d="m416.254,438.417c6.119,0,11.082,4.963,11.082,11.082s-4.963,11.078-11.082,11.078-11.078-4.959-11.078-11.078,4.959-11.082,11.078-11.082"/>
  <path class="cls-1" d="m150.248,438.417c6.119,0,11.082,4.963,11.082,11.082s-4.963,11.078-11.082,11.078-11.082-4.959-11.082-11.078,4.963-11.082,11.082-11.082"/>
  <path class="cls-1" d="m283.246,438.417c6.123,0,11.082,4.963,11.082,11.082s-4.959,11.078-11.082,11.078-11.078-4.959-11.078-11.078,4.959-11.082,11.078-11.082"/>
  <path class="cls-1" d="m17.242,438.417c6.123,0,11.082,4.963,11.082,11.082s-4.959,11.078-11.082,11.078-11.078-4.959-11.078-11.078,4.959-11.082,11.078-11.082"/>
  <path class="cls-1" d="m249.999,72.659c6.119,0,11.082,4.963,11.082,11.082s-4.963,11.078-11.082,11.078-11.082-4.959-11.082-11.078,4.963-11.082,11.082-11.082"/>
  <path class="cls-1" d="m382.997,72.659c6.119,0,11.082,4.963,11.082,11.082s-4.963,11.078-11.082,11.078-11.078-4.959-11.078-11.078,4.959-11.082,11.078-11.082"/>
  <path class="cls-1" d="m117.001,72.659c6.119,0,11.078,4.963,11.078,11.082s-4.959,11.078-11.078,11.078-11.082-4.959-11.082-11.078,4.963-11.082,11.082-11.082"/>
  <path class="cls-1" d="m249.999,338.666c6.119,0,11.082,4.963,11.082,11.082s-4.963,11.082-11.082,11.082-11.082-4.963-11.082-11.082,4.963-11.082,11.082-11.082"/>
  <path class="cls-1" d="m382.997,338.666c6.119,0,11.082,4.963,11.082,11.082s-4.963,11.082-11.082,11.082-11.078-4.963-11.078-11.082,4.959-11.082,11.078-11.082"/>
  <path class="cls-1" d="m117.001,338.666c6.119,0,11.078,4.963,11.078,11.082s-4.959,11.082-11.078,11.082-11.082-4.963-11.082-11.082,4.963-11.082,11.082-11.082"/>
  <path class="cls-1" d="m249.999,471.674c6.119,0,11.082,4.959,11.082,11.082s-4.963,11.078-11.082,11.078-11.082-4.959-11.082-11.078,4.963-11.082,11.082-11.082"/>
  <path class="cls-1" d="m382.997,471.674c6.119,0,11.082,4.959,11.082,11.082s-4.963,11.078-11.082,11.078-11.078-4.959-11.078-11.078,4.959-11.082,11.078-11.082"/>
  <path class="cls-1" d="m117.001,471.674c6.119,0,11.078,4.959,11.078,11.082s-4.959,11.078-11.078,11.078-11.082-4.959-11.082-11.078,4.963-11.082,11.082-11.082"/>
  <path class="cls-1" d="m249.999,105.916c6.119,0,11.082,4.963,11.082,11.082s-4.963,11.078-11.082,11.078-11.082-4.959-11.082-11.078,4.963-11.082,11.082-11.082"/>
  <path class="cls-1" d="m382.997,105.916c6.119,0,11.082,4.963,11.082,11.082s-4.963,11.078-11.082,11.078-11.078-4.959-11.078-11.078,4.959-11.082,11.078-11.082"/>
  <path class="cls-1" d="m117.001,105.916c6.119,0,11.078,4.963,11.078,11.082s-4.959,11.078-11.078,11.078-11.082-4.959-11.082-11.078,4.963-11.082,11.082-11.082"/>
  <path class="cls-1" d="m249.999,371.913c6.119,0,11.082,4.959,11.082,11.078s-4.963,11.082-11.082,11.082-11.082-4.963-11.082-11.082,4.963-11.078,11.082-11.078"/>
  <path class="cls-1" d="m382.997,371.913c6.119,0,11.082,4.959,11.082,11.078s-4.963,11.082-11.082,11.082-11.078-4.963-11.078-11.082,4.959-11.078,11.078-11.078"/>
  <path class="cls-1" d="m117.001,371.913c6.119,0,11.078,4.959,11.078,11.078s-4.959,11.082-11.078,11.082-11.082-4.963-11.082-11.082,4.963-11.078,11.082-11.078"/>
  <path class="cls-1" d="m449.502,72.659c6.119,0,11.078,4.963,11.078,11.082s-4.959,11.078-11.078,11.078-11.082-4.959-11.082-11.078,4.963-11.082,11.082-11.082"/>
  <path class="cls-1" d="m183.495,72.659c6.119,0,11.078,4.963,11.078,11.082s-4.959,11.078-11.078,11.078-11.082-4.959-11.082-11.078,4.963-11.082,11.082-11.082"/>
  <path class="cls-1" d="m316.503,72.659c6.119,0,11.082,4.963,11.082,11.082s-4.963,11.078-11.082,11.078-11.078-4.959-11.078-11.078,4.959-11.082,11.078-11.082"/>
  <path class="cls-1" d="m50.496,72.659c6.119,0,11.082,4.963,11.082,11.082s-4.963,11.078-11.082,11.078-11.078-4.959-11.078-11.078,4.959-11.082,11.078-11.082"/>
  <path class="cls-1" d="m449.502,338.666c6.119,0,11.078,4.963,11.078,11.082s-4.959,11.082-11.078,11.082-11.082-4.963-11.082-11.082,4.963-11.082,11.082-11.082"/>
  <path class="cls-1" d="m183.495,338.666c6.119,0,11.078,4.963,11.078,11.082s-4.959,11.082-11.078,11.082-11.082-4.963-11.082-11.082,4.963-11.082,11.082-11.082"/>
  <path class="cls-1" d="m50.496,338.666c6.119,0,11.082,4.963,11.082,11.082s-4.963,11.082-11.082,11.082-11.078-4.963-11.078-11.082,4.959-11.082,11.078-11.082"/>
  <path class="cls-1" d="m449.502,205.668c6.119,0,11.078,4.959,11.078,11.082s-4.959,11.078-11.078,11.078-11.082-4.959-11.082-11.078,4.963-11.082,11.082-11.082"/>
  <path class="cls-1" d="m50.496,205.668c6.119,0,11.082,4.959,11.082,11.082s-4.963,11.078-11.082,11.078-11.078-4.959-11.078-11.078,4.959-11.082,11.078-11.082"/>
  <path class="cls-1" d="m449.502,471.674c6.119,0,11.078,4.959,11.078,11.082s-4.959,11.078-11.078,11.078-11.082-4.959-11.082-11.078,4.963-11.082,11.082-11.082"/>
  <path class="cls-1" d="m183.495,471.674c6.119,0,11.078,4.959,11.078,11.082s-4.959,11.078-11.078,11.078-11.082-4.959-11.082-11.078,4.963-11.082,11.082-11.082"/>
  <path class="cls-1" d="m316.503,471.674c6.119,0,11.082,4.959,11.082,11.082s-4.963,11.078-11.082,11.078-11.078-4.959-11.078-11.078,4.959-11.082,11.078-11.082"/>
  <path class="cls-1" d="m50.496,471.674c6.119,0,11.082,4.959,11.082,11.082s-4.963,11.078-11.082,11.078-11.078-4.959-11.078-11.078,4.959-11.082,11.078-11.082"/>
  <path class="cls-1" d="m449.502,105.916c6.119,0,11.078,4.963,11.078,11.082s-4.959,11.078-11.078,11.078-11.082-4.959-11.082-11.078,4.963-11.082,11.082-11.082"/>
  <path class="cls-1" d="m183.495,105.916c6.119,0,11.078,4.963,11.078,11.082s-4.959,11.078-11.078,11.078-11.082-4.959-11.082-11.078,4.963-11.082,11.082-11.082"/>
  <path class="cls-1" d="m316.503,105.916c6.119,0,11.082,4.963,11.082,11.082s-4.963,11.078-11.082,11.078-11.078-4.959-11.078-11.078,4.959-11.082,11.078-11.082"/>
  <path class="cls-1" d="m50.496,105.916c6.119,0,11.082,4.963,11.082,11.082s-4.963,11.078-11.082,11.078-11.078-4.959-11.078-11.078,4.959-11.082,11.078-11.082"/>
  <path class="cls-1" d="m449.502,371.913c6.119,0,11.078,4.959,11.078,11.078s-4.959,11.082-11.078,11.082-11.082-4.963-11.082-11.082,4.963-11.078,11.082-11.078"/>
  <path class="cls-1" d="m183.495,371.913c6.119,0,11.078,4.959,11.078,11.078s-4.959,11.082-11.078,11.082-11.082-4.963-11.082-11.082,4.963-11.078,11.082-11.078"/>
  <path class="cls-1" d="m316.503,371.913c6.119,0,11.082,4.959,11.082,11.078s-4.963,11.082-11.082,11.082-11.078-4.963-11.078-11.082,4.959-11.078,11.078-11.078"/>
  <path class="cls-1" d="m50.496,371.913c6.119,0,11.082,4.959,11.082,11.078s-4.963,11.082-11.082,11.082-11.078-4.963-11.078-11.082,4.959-11.078,11.078-11.078"/>
  <path class="cls-1" d="m449.502,238.915c6.119,0,11.078,4.963,11.078,11.082s-4.959,11.082-11.078,11.082-11.082-4.963-11.082-11.082,4.963-11.082,11.082-11.082"/>
  <path class="cls-1" d="m50.496,238.915c6.119,0,11.082,4.963,11.082,11.082s-4.963,11.082-11.082,11.082-11.078-4.963-11.078-11.082,4.959-11.082,11.078-11.082"/>
  <path class="cls-1" d="m482.758,72.659c6.119,0,11.078,4.963,11.078,11.082s-4.959,11.078-11.078,11.078-11.082-4.959-11.082-11.078,4.959-11.082,11.082-11.082"/>
  <path class="cls-1" d="m216.752,72.659c6.119,0,11.078,4.963,11.078,11.082s-4.959,11.078-11.078,11.078-11.082-4.959-11.082-11.078,4.959-11.082,11.082-11.082"/>
  <path class="cls-1" d="m349.75,72.659c6.119,0,11.082,4.963,11.082,11.082s-4.963,11.078-11.082,11.078-11.082-4.959-11.082-11.078,4.963-11.082,11.082-11.082"/>
  <path class="cls-1" d="m83.744,72.659c6.119,0,11.078,4.963,11.078,11.082s-4.959,11.078-11.078,11.078-11.082-4.959-11.082-11.078,4.963-11.082,11.082-11.082"/>
  <path class="cls-1" d="m482.758,338.666c6.119,0,11.078,4.963,11.078,11.082s-4.959,11.082-11.078,11.082-11.082-4.963-11.082-11.082,4.959-11.082,11.082-11.082"/>
  <path class="cls-1" d="m216.752,338.666c6.119,0,11.078,4.963,11.078,11.082s-4.959,11.082-11.078,11.082-11.082-4.963-11.082-11.082,4.959-11.082,11.082-11.082"/>
  <path class="cls-1" d="m349.75,338.666c6.119,0,11.082,4.963,11.082,11.082s-4.963,11.082-11.082,11.082-11.082-4.963-11.082-11.082,4.963-11.082,11.082-11.082"/>
  <path class="cls-1" d="m83.744,338.666c6.119,0,11.078,4.963,11.078,11.082s-4.959,11.082-11.078,11.082-11.082-4.963-11.082-11.082,4.963-11.082,11.082-11.082"/>
  <path class="cls-1" d="m482.758,205.668c6.119,0,11.078,4.959,11.078,11.082s-4.959,11.078-11.078,11.078-11.082-4.959-11.082-11.078,4.959-11.082,11.082-11.082"/>
  <path class="cls-1" d="m482.758,471.674c6.119,0,11.078,4.959,11.078,11.082s-4.959,11.078-11.078,11.078-11.082-4.959-11.082-11.078,4.959-11.082,11.082-11.082"/>
  <path class="cls-1" d="m216.752,471.674c6.119,0,11.078,4.959,11.078,11.082s-4.959,11.078-11.078,11.078-11.082-4.959-11.082-11.078,4.959-11.082,11.082-11.082"/>
  <path class="cls-1" d="m349.75,471.674c6.119,0,11.082,4.959,11.082,11.082s-4.963,11.078-11.082,11.078-11.082-4.959-11.082-11.078,4.963-11.082,11.082-11.082"/>
  <path class="cls-1" d="m83.744,471.674c6.119,0,11.078,4.959,11.078,11.082s-4.959,11.078-11.078,11.078-11.082-4.959-11.082-11.078,4.963-11.082,11.082-11.082"/>
  <path class="cls-1" d="m482.758,105.916c6.119,0,11.078,4.963,11.078,11.082s-4.959,11.078-11.078,11.078-11.082-4.959-11.082-11.078,4.959-11.082,11.082-11.082"/>
  <path class="cls-1" d="m216.752,105.916c6.119,0,11.078,4.963,11.078,11.082s-4.959,11.078-11.078,11.078-11.082-4.959-11.082-11.078,4.959-11.082,11.082-11.082"/>
  <path class="cls-1" d="m349.75,105.916c6.119,0,11.082,4.963,11.082,11.082s-4.963,11.078-11.082,11.078-11.082-4.959-11.082-11.078,4.963-11.082,11.082-11.082"/>
  <path class="cls-1" d="m83.744,105.916c6.119,0,11.078,4.963,11.078,11.082s-4.959,11.078-11.078,11.078-11.082-4.959-11.082-11.078,4.963-11.082,11.082-11.082"/>
  <path class="cls-1" d="m482.758,371.913c6.119,0,11.078,4.959,11.078,11.078s-4.959,11.082-11.078,11.082-11.082-4.963-11.082-11.082,4.959-11.078,11.082-11.078"/>
  <path class="cls-1" d="m216.752,371.913c6.119,0,11.078,4.959,11.078,11.078s-4.959,11.082-11.078,11.082-11.082-4.963-11.082-11.082,4.959-11.078,11.082-11.078"/>
  <path class="cls-1" d="m349.75,371.913c6.119,0,11.082,4.959,11.082,11.078s-4.963,11.082-11.082,11.082-11.082-4.963-11.082-11.082,4.963-11.078,11.082-11.078"/>
  <path class="cls-1" d="m83.744,371.913c6.119,0,11.078,4.959,11.078,11.078s-4.959,11.082-11.078,11.082-11.082-4.963-11.082-11.082,4.963-11.078,11.082-11.078"/>
  <path class="cls-1" d="m482.758,238.915c6.119,0,11.078,4.963,11.078,11.082s-4.959,11.082-11.078,11.082-11.082-4.963-11.082-11.082,4.959-11.082,11.082-11.082"/>
  <path class="cls-1" d="m416.254,72.659c6.119,0,11.082,4.963,11.082,11.082s-4.963,11.078-11.082,11.078-11.078-4.959-11.078-11.078,4.959-11.082,11.078-11.082"/>
  <path class="cls-1" d="m150.248,72.659c6.119,0,11.082,4.963,11.082,11.082s-4.963,11.078-11.082,11.078-11.082-4.959-11.082-11.078,4.963-11.082,11.082-11.082"/>
  <path class="cls-1" d="m283.246,72.659c6.123,0,11.082,4.963,11.082,11.082s-4.959,11.078-11.082,11.078-11.078-4.959-11.078-11.078,4.959-11.082,11.078-11.082"/>
  <path class="cls-1" d="m17.242,72.659c6.123,0,11.082,4.963,11.082,11.082s-4.959,11.078-11.082,11.078-11.078-4.959-11.078-11.078,4.959-11.082,11.078-11.082"/>
  <path class="cls-1" d="m416.254,338.666c6.119,0,11.082,4.963,11.082,11.082s-4.963,11.082-11.082,11.082-11.078-4.963-11.078-11.082,4.959-11.082,11.078-11.082"/>
  <path class="cls-1" d="m150.248,338.666c6.119,0,11.082,4.963,11.082,11.082s-4.963,11.082-11.082,11.082-11.082-4.963-11.082-11.082,4.963-11.082,11.082-11.082"/>
  <path class="cls-1" d="m17.242,338.666c6.123,0,11.082,4.963,11.082,11.082s-4.959,11.082-11.082,11.082-11.078-4.963-11.078-11.082,4.959-11.082,11.078-11.082"/>
  <path class="cls-1" d="m416.254,205.668c6.119,0,11.082,4.959,11.082,11.082s-4.963,11.078-11.082,11.078-11.078-4.959-11.078-11.078,4.959-11.082,11.078-11.082"/>
  <path class="cls-1" d="m17.242,205.668c6.123,0,11.082,4.959,11.082,11.082s-4.959,11.078-11.082,11.078-11.078-4.959-11.078-11.078,4.959-11.082,11.078-11.082"/>
  <path class="cls-1" d="m416.254,471.674c6.119,0,11.082,4.959,11.082,11.082s-4.963,11.078-11.082,11.078-11.078-4.959-11.078-11.078,4.959-11.082,11.078-11.082"/>
  <path class="cls-1" d="m150.248,471.674c6.119,0,11.082,4.959,11.082,11.082s-4.963,11.078-11.082,11.078-11.082-4.959-11.082-11.078,4.963-11.082,11.082-11.082"/>
  <path class="cls-1" d="m283.246,471.674c6.123,0,11.082,4.959,11.082,11.082s-4.959,11.078-11.082,11.078-11.078-4.959-11.078-11.078,4.959-11.082,11.078-11.082"/>
  <path class="cls-1" d="m17.242,471.674c6.123,0,11.082,4.959,11.082,11.082s-4.959,11.078-11.082,11.078-11.078-4.959-11.078-11.078,4.959-11.082,11.078-11.082"/>
  <path class="cls-1" d="m416.254,105.916c6.119,0,11.082,4.963,11.082,11.082s-4.963,11.078-11.082,11.078-11.078-4.959-11.078-11.078,4.959-11.082,11.078-11.082"/>
  <path class="cls-1" d="m150.248,105.916c6.119,0,11.082,4.963,11.082,11.082s-4.963,11.078-11.082,11.078-11.082-4.959-11.082-11.078,4.963-11.082,11.082-11.082"/>
  <path class="cls-1" d="m17.242,105.916c6.123,0,11.082,4.963,11.082,11.082s-4.959,11.078-11.082,11.078-11.078-4.959-11.078-11.078,4.959-11.082,11.078-11.082"/>
  <path class="cls-1" d="m416.254,371.913c6.119,0,11.082,4.959,11.082,11.078s-4.963,11.082-11.082,11.082-11.078-4.963-11.078-11.082,4.959-11.078,11.078-11.078"/>
  <path class="cls-1" d="m150.248,371.913c6.119,0,11.082,4.959,11.082,11.078s-4.963,11.082-11.082,11.082-11.082-4.963-11.082-11.082,4.963-11.078,11.082-11.078"/>
  <path class="cls-1" d="m17.242,371.913c6.123,0,11.082,4.959,11.082,11.078s-4.959,11.082-11.082,11.082-11.078-4.963-11.078-11.082,4.959-11.078,11.078-11.078"/>
  <path class="cls-1" d="m17.242,238.915c6.123,0,11.082,4.963,11.082,11.082s-4.959,11.082-11.082,11.082-11.078-4.963-11.078-11.082,4.959-11.082,11.078-11.082"/>
</svg>