<?xml version="1.0" encoding="UTF-8"?>
<svg id="Layer_1" data-name="Layer 1" xmlns="http://www.w3.org/2000/svg" viewBox="0 0 500 500">
  <defs>
    <style>
      .cls-1 {
        fill-rule: evenodd;
      }
    </style>
  </defs>
  <path class="cls-1" d="m250.001,493.835c-6.119,0-11.082-4.959-11.082-11.078s4.963-11.082,11.082-11.082,11.082,4.959,11.082,11.082-4.963,11.078-11.082,11.078"/>
  <path class="cls-1" d="m117.003,493.835c-6.119,0-11.082-4.959-11.082-11.078s4.963-11.082,11.082-11.082,11.078,4.959,11.078,11.082-4.959,11.078-11.078,11.078"/>
  <path class="cls-1" d="m382.999,493.835c-6.119,0-11.078-4.959-11.078-11.078s4.959-11.082,11.078-11.082,11.082,4.959,11.082,11.082-4.963,11.078-11.082,11.078"/>
  <path class="cls-1" d="m250.001,360.837c-6.119,0-11.082-4.963-11.082-11.082s4.963-11.082,11.082-11.082,11.082,4.963,11.082,11.082-4.963,11.082-11.082,11.082"/>
  <path class="cls-1" d="m117.003,360.837c-6.119,0-11.082-4.963-11.082-11.082s4.963-11.082,11.082-11.082,11.078,4.963,11.078,11.082-4.959,11.082-11.078,11.082"/>
  <path class="cls-1" d="m382.999,360.837c-6.119,0-11.078-4.963-11.078-11.082s4.959-11.082,11.078-11.082,11.082,4.963,11.082,11.082-4.963,11.082-11.082,11.082"/>
  <path class="cls-1" d="m250.001,94.83c-6.119,0-11.082-4.959-11.082-11.078s4.963-11.082,11.082-11.082,11.082,4.963,11.082,11.082-4.963,11.078-11.082,11.078"/>
  <path class="cls-1" d="m117.003,94.83c-6.119,0-11.082-4.959-11.082-11.078s4.963-11.082,11.082-11.082,11.078,4.963,11.078,11.082-4.959,11.078-11.078,11.078"/>
  <path class="cls-1" d="m382.999,94.83c-6.119,0-11.078-4.959-11.078-11.078s4.959-11.082,11.078-11.082,11.082,4.963,11.082,11.082-4.963,11.078-11.082,11.078"/>
  <path class="cls-1" d="m50.498,493.835c-6.119,0-11.078-4.959-11.078-11.078s4.959-11.082,11.078-11.082,11.082,4.959,11.082,11.082-4.963,11.078-11.082,11.078"/>
  <path class="cls-1" d="m316.505,493.835c-6.119,0-11.078-4.959-11.078-11.078s4.959-11.082,11.078-11.082,11.082,4.959,11.082,11.082-4.963,11.078-11.082,11.078"/>
  <path class="cls-1" d="m183.497,493.835c-6.119,0-11.082-4.959-11.082-11.078s4.963-11.082,11.082-11.082,11.078,4.959,11.078,11.082-4.959,11.078-11.078,11.078"/>
  <path class="cls-1" d="m449.504,493.835c-6.119,0-11.082-4.959-11.082-11.078s4.963-11.082,11.082-11.082,11.078,4.959,11.078,11.082-4.959,11.078-11.078,11.078"/>
  <path class="cls-1" d="m50.498,227.838c-6.119,0-11.078-4.959-11.078-11.078s4.959-11.082,11.078-11.082,11.082,4.959,11.082,11.082-4.963,11.078-11.082,11.078"/>
  <path class="cls-1" d="m449.504,227.838c-6.119,0-11.082-4.959-11.082-11.078s4.963-11.082,11.082-11.082,11.078,4.959,11.078,11.082-4.959,11.078-11.078,11.078"/>
  <path class="cls-1" d="m50.498,360.837c-6.119,0-11.078-4.963-11.078-11.082s4.959-11.082,11.078-11.082,11.082,4.963,11.082,11.082-4.963,11.082-11.082,11.082"/>
  <path class="cls-1" d="m316.505,360.837c-6.119,0-11.078-4.963-11.078-11.082s4.959-11.082,11.078-11.082,11.082,4.963,11.082,11.082-4.963,11.082-11.082,11.082"/>
  <path class="cls-1" d="m449.504,360.837c-6.119,0-11.082-4.963-11.082-11.082s4.963-11.082,11.082-11.082,11.078,4.963,11.078,11.082-4.959,11.082-11.078,11.082"/>
  <path class="cls-1" d="m50.498,94.83c-6.119,0-11.078-4.959-11.078-11.078s4.959-11.082,11.078-11.082,11.082,4.963,11.082,11.082-4.963,11.078-11.082,11.078"/>
  <path class="cls-1" d="m316.505,94.83c-6.119,0-11.078-4.959-11.078-11.078s4.959-11.082,11.078-11.082,11.082,4.963,11.082,11.082-4.963,11.078-11.082,11.078"/>
  <path class="cls-1" d="m183.497,94.83c-6.119,0-11.082-4.959-11.082-11.078s4.963-11.082,11.082-11.082,11.078,4.963,11.078,11.082-4.959,11.078-11.078,11.078"/>
  <path class="cls-1" d="m449.504,94.83c-6.119,0-11.082-4.959-11.082-11.078s4.963-11.082,11.082-11.082,11.078,4.963,11.078,11.082-4.959,11.078-11.078,11.078"/>
  <path class="cls-1" d="m17.242,493.835c-6.119,0-11.078-4.959-11.078-11.078s4.959-11.082,11.078-11.082,11.082,4.959,11.082,11.082-4.959,11.078-11.082,11.078"/>
  <path class="cls-1" d="m283.248,493.835c-6.119,0-11.078-4.959-11.078-11.078s4.959-11.082,11.078-11.082,11.082,4.959,11.082,11.082-4.959,11.078-11.082,11.078"/>
  <path class="cls-1" d="m150.25,493.835c-6.119,0-11.082-4.959-11.082-11.078s4.963-11.082,11.082-11.082,11.082,4.959,11.082,11.082-4.963,11.078-11.082,11.078"/>
  <path class="cls-1" d="m416.256,493.835c-6.119,0-11.078-4.959-11.078-11.078s4.959-11.082,11.078-11.082,11.082,4.959,11.082,11.082-4.963,11.078-11.082,11.078"/>
  <path class="cls-1" d="m17.242,227.838c-6.119,0-11.078-4.959-11.078-11.078s4.959-11.082,11.078-11.082,11.082,4.959,11.082,11.082-4.959,11.078-11.082,11.078"/>
  <path class="cls-1" d="m17.242,360.837c-6.119,0-11.078-4.963-11.078-11.082s4.959-11.082,11.078-11.082,11.082,4.963,11.082,11.082-4.959,11.082-11.082,11.082"/>
  <path class="cls-1" d="m283.248,360.837c-6.119,0-11.078-4.963-11.078-11.082s4.959-11.082,11.078-11.082,11.082,4.963,11.082,11.082-4.959,11.082-11.082,11.082"/>
  <path class="cls-1" d="m150.25,360.837c-6.119,0-11.082-4.963-11.082-11.082s4.963-11.082,11.082-11.082,11.082,4.963,11.082,11.082-4.963,11.082-11.082,11.082"/>
  <path class="cls-1" d="m416.256,360.837c-6.119,0-11.078-4.963-11.078-11.082s4.959-11.082,11.078-11.082,11.082,4.963,11.082,11.082-4.963,11.082-11.082,11.082"/>
  <path class="cls-1" d="m17.242,94.83c-6.119,0-11.078-4.959-11.078-11.078s4.959-11.082,11.078-11.082,11.082,4.963,11.082,11.082-4.959,11.078-11.082,11.078"/>
  <path class="cls-1" d="m283.248,94.83c-6.119,0-11.078-4.959-11.078-11.078s4.959-11.082,11.078-11.082,11.082,4.963,11.082,11.082-4.959,11.078-11.082,11.078"/>
  <path class="cls-1" d="m150.25,94.83c-6.119,0-11.082-4.959-11.082-11.078s4.963-11.082,11.082-11.082,11.082,4.963,11.082,11.082-4.963,11.078-11.082,11.078"/>
  <path class="cls-1" d="m416.256,94.83c-6.119,0-11.078-4.959-11.078-11.078s4.959-11.082,11.078-11.082,11.082,4.963,11.082,11.082-4.963,11.078-11.082,11.078"/>
  <path class="cls-1" d="m83.746,493.835c-6.119,0-11.082-4.959-11.082-11.078s4.963-11.082,11.082-11.082,11.078,4.959,11.078,11.082-4.959,11.078-11.078,11.078"/>
  <path class="cls-1" d="m349.752,493.835c-6.119,0-11.082-4.959-11.082-11.078s4.963-11.082,11.082-11.082,11.082,4.959,11.082,11.082-4.963,11.078-11.082,11.078"/>
  <path class="cls-1" d="m216.754,493.835c-6.123,0-11.082-4.959-11.082-11.078s4.959-11.082,11.082-11.082,11.078,4.959,11.078,11.082-4.959,11.078-11.078,11.078"/>
  <path class="cls-1" d="m482.758,493.835c-6.123,0-11.082-4.959-11.082-11.078s4.959-11.082,11.082-11.082,11.078,4.959,11.078,11.082-4.959,11.078-11.078,11.078"/>
  <path class="cls-1" d="m83.746,227.838c-6.119,0-11.082-4.959-11.082-11.078s4.963-11.082,11.082-11.082,11.078,4.959,11.078,11.082-4.959,11.078-11.078,11.078"/>
  <path class="cls-1" d="m482.758,227.838c-6.123,0-11.082-4.959-11.082-11.078s4.959-11.082,11.082-11.082,11.078,4.959,11.078,11.082-4.959,11.078-11.078,11.078"/>
  <path class="cls-1" d="m83.746,360.837c-6.119,0-11.082-4.963-11.082-11.082s4.963-11.082,11.082-11.082,11.078,4.963,11.078,11.082-4.959,11.082-11.078,11.082"/>
  <path class="cls-1" d="m349.752,360.837c-6.119,0-11.082-4.963-11.082-11.082s4.963-11.082,11.082-11.082,11.082,4.963,11.082,11.082-4.963,11.082-11.082,11.082"/>
  <path class="cls-1" d="m482.758,360.837c-6.123,0-11.082-4.963-11.082-11.082s4.959-11.082,11.082-11.082,11.078,4.963,11.078,11.082-4.959,11.082-11.078,11.082"/>
  <path class="cls-1" d="m83.746,94.83c-6.119,0-11.082-4.959-11.082-11.078s4.963-11.082,11.082-11.082,11.078,4.963,11.078,11.082-4.959,11.078-11.078,11.078"/>
  <path class="cls-1" d="m349.752,94.83c-6.119,0-11.082-4.959-11.082-11.078s4.963-11.082,11.082-11.082,11.082,4.963,11.082,11.082-4.963,11.078-11.082,11.078"/>
  <path class="cls-1" d="m216.754,94.83c-6.123,0-11.082-4.959-11.082-11.078s4.959-11.082,11.082-11.082,11.078,4.963,11.078,11.082-4.959,11.078-11.078,11.078"/>
  <path class="cls-1" d="m482.758,94.83c-6.123,0-11.082-4.959-11.082-11.078s4.959-11.082,11.082-11.082,11.078,4.963,11.078,11.082-4.959,11.078-11.078,11.078"/>
  <path class="cls-1" d="m250.001,460.588c-6.119,0-11.082-4.959-11.082-11.078s4.963-11.082,11.082-11.082,11.082,4.963,11.082,11.082-4.963,11.078-11.082,11.078"/>
  <path class="cls-1" d="m117.003,460.588c-6.119,0-11.082-4.959-11.082-11.078s4.963-11.082,11.082-11.082,11.078,4.963,11.078,11.082-4.959,11.078-11.078,11.078"/>
  <path class="cls-1" d="m382.999,460.588c-6.119,0-11.078-4.959-11.078-11.078s4.959-11.082,11.078-11.082,11.082,4.963,11.082,11.082-4.963,11.078-11.082,11.078"/>
  <path class="cls-1" d="m250.001,194.581c-6.119,0-11.082-4.959-11.082-11.078s4.963-11.082,11.082-11.082,11.082,4.963,11.082,11.082-4.963,11.078-11.082,11.078"/>
  <path class="cls-1" d="m117.003,194.581c-6.119,0-11.082-4.959-11.082-11.078s4.963-11.082,11.082-11.082,11.078,4.963,11.078,11.082-4.959,11.078-11.078,11.078"/>
  <path class="cls-1" d="m382.999,194.581c-6.119,0-11.078-4.959-11.078-11.078s4.959-11.082,11.078-11.082,11.082,4.963,11.082,11.082-4.963,11.078-11.082,11.078"/>
  <path class="cls-1" d="m250.001,327.589c-6.119,0-11.082-4.963-11.082-11.082s4.963-11.078,11.082-11.078,11.082,4.959,11.082,11.078-4.963,11.082-11.082,11.082"/>
  <path class="cls-1" d="m117.003,327.589c-6.119,0-11.082-4.963-11.082-11.082s4.963-11.078,11.082-11.078,11.078,4.959,11.078,11.078-4.959,11.082-11.078,11.082"/>
  <path class="cls-1" d="m382.999,327.589c-6.119,0-11.078-4.963-11.078-11.082s4.959-11.078,11.078-11.078,11.082,4.959,11.082,11.078-4.963,11.082-11.082,11.082"/>
  <path class="cls-1" d="m250.001,61.583c-6.119,0-11.082-4.963-11.082-11.082s4.963-11.078,11.082-11.078,11.082,4.959,11.082,11.078-4.963,11.082-11.082,11.082"/>
  <path class="cls-1" d="m117.003,61.583c-6.119,0-11.082-4.963-11.082-11.082s4.963-11.078,11.082-11.078,11.078,4.959,11.078,11.078-4.959,11.082-11.078,11.082"/>
  <path class="cls-1" d="m382.999,61.583c-6.119,0-11.078-4.963-11.078-11.082s4.959-11.078,11.078-11.078,11.082,4.959,11.082,11.078-4.963,11.082-11.082,11.082"/>
  <path class="cls-1" d="m50.498,460.588c-6.119,0-11.078-4.959-11.078-11.078s4.959-11.082,11.078-11.082,11.082,4.963,11.082,11.082-4.963,11.078-11.082,11.078"/>
  <path class="cls-1" d="m316.505,460.588c-6.119,0-11.078-4.959-11.078-11.078s4.959-11.082,11.078-11.082,11.082,4.963,11.082,11.082-4.963,11.078-11.082,11.078"/>
  <path class="cls-1" d="m183.497,460.588c-6.119,0-11.082-4.959-11.082-11.078s4.963-11.082,11.082-11.082,11.078,4.963,11.078,11.082-4.959,11.078-11.078,11.078"/>
  <path class="cls-1" d="m449.504,460.588c-6.119,0-11.082-4.959-11.082-11.078s4.963-11.082,11.082-11.082,11.078,4.963,11.078,11.082-4.959,11.078-11.078,11.078"/>
  <path class="cls-1" d="m50.498,194.581c-6.119,0-11.078-4.959-11.078-11.078s4.959-11.082,11.078-11.082,11.082,4.963,11.082,11.082-4.963,11.078-11.082,11.078"/>
  <path class="cls-1" d="m316.505,194.581c-6.119,0-11.078-4.959-11.078-11.078s4.959-11.082,11.078-11.082,11.082,4.963,11.082,11.082-4.963,11.078-11.082,11.078"/>
  <path class="cls-1" d="m449.504,194.581c-6.119,0-11.082-4.959-11.082-11.078s4.963-11.082,11.082-11.082,11.078,4.963,11.078,11.082-4.959,11.078-11.078,11.078"/>
  <path class="cls-1" d="m50.498,327.589c-6.119,0-11.078-4.963-11.078-11.082s4.959-11.078,11.078-11.078,11.082,4.959,11.082,11.078-4.963,11.082-11.082,11.082"/>
  <path class="cls-1" d="m316.505,327.589c-6.119,0-11.078-4.963-11.078-11.082s4.959-11.078,11.078-11.078,11.082,4.959,11.082,11.078-4.963,11.082-11.082,11.082"/>
  <path class="cls-1" d="m449.504,327.589c-6.119,0-11.082-4.963-11.082-11.082s4.963-11.078,11.082-11.078,11.078,4.959,11.078,11.078-4.959,11.082-11.078,11.082"/>
  <path class="cls-1" d="m50.498,61.583c-6.119,0-11.078-4.963-11.078-11.082s4.959-11.078,11.078-11.078,11.082,4.959,11.082,11.078-4.963,11.082-11.082,11.082"/>
  <path class="cls-1" d="m316.505,61.583c-6.119,0-11.078-4.963-11.078-11.082s4.959-11.078,11.078-11.078,11.082,4.959,11.082,11.078-4.963,11.082-11.082,11.082"/>
  <path class="cls-1" d="m183.497,61.583c-6.119,0-11.082-4.963-11.082-11.082s4.963-11.078,11.082-11.078,11.078,4.959,11.078,11.078-4.959,11.082-11.078,11.082"/>
  <path class="cls-1" d="m449.504,61.583c-6.119,0-11.082-4.963-11.082-11.082s4.963-11.078,11.082-11.078,11.078,4.959,11.078,11.078-4.959,11.082-11.078,11.082"/>
  <path class="cls-1" d="m17.242,460.588c-6.119,0-11.078-4.959-11.078-11.078s4.959-11.082,11.078-11.082,11.082,4.963,11.082,11.082-4.959,11.078-11.082,11.078"/>
  <path class="cls-1" d="m283.248,460.588c-6.119,0-11.078-4.959-11.078-11.078s4.959-11.082,11.078-11.082,11.082,4.963,11.082,11.082-4.959,11.078-11.082,11.078"/>
  <path class="cls-1" d="m150.25,460.588c-6.119,0-11.082-4.959-11.082-11.078s4.963-11.082,11.082-11.082,11.082,4.963,11.082,11.082-4.963,11.078-11.082,11.078"/>
  <path class="cls-1" d="m416.256,460.588c-6.119,0-11.078-4.959-11.078-11.078s4.959-11.082,11.078-11.082,11.082,4.963,11.082,11.082-4.963,11.078-11.082,11.078"/>
  <path class="cls-1" d="m17.242,194.581c-6.119,0-11.078-4.959-11.078-11.078s4.959-11.082,11.078-11.082,11.082,4.963,11.082,11.082-4.959,11.078-11.082,11.078"/>
  <path class="cls-1" d="m283.248,194.581c-6.119,0-11.078-4.959-11.078-11.078s4.959-11.082,11.078-11.082,11.082,4.963,11.082,11.082-4.959,11.078-11.082,11.078"/>
  <path class="cls-1" d="m416.256,194.581c-6.119,0-11.078-4.959-11.078-11.078s4.959-11.082,11.078-11.082,11.082,4.963,11.082,11.082-4.963,11.078-11.082,11.078"/>
  <path class="cls-1" d="m17.242,327.589c-6.119,0-11.078-4.963-11.078-11.082s4.959-11.078,11.078-11.078,11.082,4.959,11.082,11.078-4.959,11.082-11.082,11.082"/>
  <path class="cls-1" d="m283.248,327.589c-6.119,0-11.078-4.963-11.078-11.082s4.959-11.078,11.078-11.078,11.082,4.959,11.082,11.078-4.959,11.082-11.082,11.082"/>
  <path class="cls-1" d="m416.256,327.589c-6.119,0-11.078-4.963-11.078-11.082s4.959-11.078,11.078-11.078,11.082,4.959,11.082,11.078-4.963,11.082-11.082,11.082"/>
  <path class="cls-1" d="m17.242,61.583c-6.119,0-11.078-4.963-11.078-11.082s4.959-11.078,11.078-11.078,11.082,4.959,11.082,11.078-4.959,11.082-11.082,11.082"/>
  <path class="cls-1" d="m283.248,61.583c-6.119,0-11.078-4.963-11.078-11.082s4.959-11.078,11.078-11.078,11.082,4.959,11.082,11.078-4.959,11.082-11.082,11.082"/>
  <path class="cls-1" d="m150.25,61.583c-6.119,0-11.082-4.963-11.082-11.082s4.963-11.078,11.082-11.078,11.082,4.959,11.082,11.078-4.963,11.082-11.082,11.082"/>
  <path class="cls-1" d="m416.256,61.583c-6.119,0-11.078-4.963-11.078-11.082s4.959-11.078,11.078-11.078,11.082,4.959,11.082,11.078-4.963,11.082-11.082,11.082"/>
  <path class="cls-1" d="m83.746,460.588c-6.119,0-11.082-4.959-11.082-11.078s4.963-11.082,11.082-11.082,11.078,4.963,11.078,11.082-4.959,11.078-11.078,11.078"/>
  <path class="cls-1" d="m349.752,460.588c-6.119,0-11.082-4.959-11.082-11.078s4.963-11.082,11.082-11.082,11.082,4.963,11.082,11.082-4.963,11.078-11.082,11.078"/>
  <path class="cls-1" d="m216.754,460.588c-6.123,0-11.082-4.959-11.082-11.078s4.959-11.082,11.082-11.082,11.078,4.963,11.078,11.082-4.959,11.078-11.078,11.078"/>
  <path class="cls-1" d="m482.758,460.588c-6.123,0-11.082-4.959-11.082-11.078s4.959-11.082,11.082-11.082,11.078,4.963,11.078,11.082-4.959,11.078-11.078,11.078"/>
  <path class="cls-1" d="m83.746,194.581c-6.119,0-11.082-4.959-11.082-11.078s4.963-11.082,11.082-11.082,11.078,4.963,11.078,11.082-4.959,11.078-11.078,11.078"/>
  <path class="cls-1" d="m349.752,194.581c-6.119,0-11.082-4.959-11.082-11.078s4.963-11.082,11.082-11.082,11.082,4.963,11.082,11.082-4.963,11.078-11.082,11.078"/>
  <path class="cls-1" d="m482.758,194.581c-6.123,0-11.082-4.959-11.082-11.078s4.959-11.082,11.082-11.082,11.078,4.963,11.078,11.082-4.959,11.078-11.078,11.078"/>
  <path class="cls-1" d="m83.746,327.589c-6.119,0-11.082-4.963-11.082-11.082s4.963-11.078,11.082-11.078,11.078,4.959,11.078,11.078-4.959,11.082-11.078,11.082"/>
  <path class="cls-1" d="m349.752,327.589c-6.119,0-11.082-4.963-11.082-11.082s4.963-11.078,11.082-11.078,11.082,4.959,11.082,11.078-4.963,11.082-11.082,11.082"/>
  <path class="cls-1" d="m482.758,327.589c-6.123,0-11.082-4.963-11.082-11.082s4.959-11.078,11.082-11.078,11.078,4.959,11.078,11.078-4.959,11.082-11.078,11.082"/>
  <path class="cls-1" d="m83.746,61.583c-6.119,0-11.082-4.963-11.082-11.082s4.963-11.078,11.082-11.078,11.078,4.959,11.078,11.078-4.959,11.082-11.078,11.082"/>
  <path class="cls-1" d="m349.752,61.583c-6.119,0-11.082-4.963-11.082-11.082s4.963-11.078,11.082-11.078,11.082,4.959,11.082,11.078-4.963,11.082-11.082,11.082"/>
  <path class="cls-1" d="m216.754,61.583c-6.123,0-11.082-4.963-11.082-11.082s4.959-11.078,11.082-11.078,11.078,4.959,11.078,11.078-4.959,11.082-11.078,11.082"/>
  <path class="cls-1" d="m482.758,61.583c-6.123,0-11.082-4.963-11.082-11.082s4.959-11.078,11.082-11.078,11.078,4.959,11.078,11.078-4.959,11.082-11.078,11.082"/>
  <path class="cls-1" d="m250.001,427.341c-6.119,0-11.082-4.963-11.082-11.082s4.963-11.078,11.082-11.078,11.082,4.959,11.082,11.078-4.963,11.082-11.082,11.082"/>
  <path class="cls-1" d="m117.003,427.341c-6.119,0-11.082-4.963-11.082-11.082s4.963-11.078,11.082-11.078,11.078,4.959,11.078,11.078-4.959,11.082-11.078,11.082"/>
  <path class="cls-1" d="m382.999,427.341c-6.119,0-11.078-4.963-11.078-11.082s4.959-11.078,11.078-11.078,11.082,4.959,11.082,11.078-4.963,11.082-11.082,11.082"/>
  <path class="cls-1" d="m250.001,161.334c-6.119,0-11.082-4.963-11.082-11.082s4.963-11.082,11.082-11.082,11.082,4.963,11.082,11.082-4.963,11.082-11.082,11.082"/>
  <path class="cls-1" d="m117.003,161.334c-6.119,0-11.082-4.963-11.082-11.082s4.963-11.082,11.082-11.082,11.078,4.963,11.078,11.082-4.959,11.082-11.078,11.082"/>
  <path class="cls-1" d="m382.999,161.334c-6.119,0-11.078-4.963-11.078-11.082s4.959-11.082,11.078-11.082,11.082,4.963,11.082,11.082-4.963,11.082-11.082,11.082"/>
  <path class="cls-1" d="m250.001,28.326c-6.119,0-11.082-4.959-11.082-11.082s4.963-11.078,11.082-11.078,11.082,4.959,11.082,11.078-4.963,11.082-11.082,11.082"/>
  <path class="cls-1" d="m117.003,28.326c-6.119,0-11.082-4.959-11.082-11.082s4.963-11.078,11.082-11.078,11.078,4.959,11.078,11.078-4.959,11.082-11.078,11.082"/>
  <path class="cls-1" d="m382.999,28.326c-6.119,0-11.078-4.959-11.078-11.082s4.959-11.078,11.078-11.078,11.082,4.959,11.082,11.078-4.963,11.082-11.082,11.082"/>
  <path class="cls-1" d="m250.001,394.084c-6.119,0-11.082-4.963-11.082-11.082s4.963-11.078,11.082-11.078,11.082,4.959,11.082,11.078-4.963,11.082-11.082,11.082"/>
  <path class="cls-1" d="m117.003,394.084c-6.119,0-11.082-4.963-11.082-11.082s4.963-11.078,11.082-11.078,11.078,4.959,11.078,11.078-4.959,11.082-11.078,11.082"/>
  <path class="cls-1" d="m382.999,394.084c-6.119,0-11.078-4.963-11.078-11.082s4.959-11.078,11.078-11.078,11.082,4.959,11.082,11.078-4.963,11.082-11.082,11.082"/>
  <path class="cls-1" d="m250.001,128.087c-6.119,0-11.082-4.959-11.082-11.078s4.963-11.082,11.082-11.082,11.082,4.963,11.082,11.082-4.963,11.078-11.082,11.078"/>
  <path class="cls-1" d="m117.003,128.087c-6.119,0-11.082-4.959-11.082-11.078s4.963-11.082,11.082-11.082,11.078,4.963,11.078,11.082-4.959,11.078-11.078,11.078"/>
  <path class="cls-1" d="m382.999,128.087c-6.119,0-11.078-4.959-11.078-11.078s4.959-11.082,11.078-11.082,11.082,4.963,11.082,11.082-4.963,11.078-11.082,11.078"/>
  <path class="cls-1" d="m50.498,427.341c-6.119,0-11.078-4.963-11.078-11.082s4.959-11.078,11.078-11.078,11.082,4.959,11.082,11.078-4.963,11.082-11.082,11.082"/>
  <path class="cls-1" d="m316.505,427.341c-6.119,0-11.078-4.963-11.078-11.082s4.959-11.078,11.078-11.078,11.082,4.959,11.082,11.078-4.963,11.082-11.082,11.082"/>
  <path class="cls-1" d="m183.497,427.341c-6.119,0-11.082-4.963-11.082-11.082s4.963-11.078,11.082-11.078,11.078,4.959,11.078,11.078-4.959,11.082-11.078,11.082"/>
  <path class="cls-1" d="m449.504,427.341c-6.119,0-11.082-4.963-11.082-11.082s4.963-11.078,11.082-11.078,11.078,4.959,11.078,11.078-4.959,11.082-11.078,11.082"/>
  <path class="cls-1" d="m50.498,161.334c-6.119,0-11.078-4.963-11.078-11.082s4.959-11.082,11.078-11.082,11.082,4.963,11.082,11.082-4.963,11.082-11.082,11.082"/>
  <path class="cls-1" d="m316.505,161.334c-6.119,0-11.078-4.963-11.078-11.082s4.959-11.082,11.078-11.082,11.082,4.963,11.082,11.082-4.963,11.082-11.082,11.082"/>
  <path class="cls-1" d="m449.504,161.334c-6.119,0-11.082-4.963-11.082-11.082s4.963-11.082,11.082-11.082,11.078,4.963,11.078,11.082-4.959,11.082-11.078,11.082"/>
  <path class="cls-1" d="m50.498,294.332c-6.119,0-11.078-4.959-11.078-11.082s4.959-11.078,11.078-11.078,11.082,4.959,11.082,11.078-4.963,11.082-11.082,11.082"/>
  <path class="cls-1" d="m449.504,294.332c-6.119,0-11.082-4.959-11.082-11.082s4.963-11.078,11.082-11.078,11.078,4.959,11.078,11.078-4.959,11.082-11.078,11.082"/>
  <path class="cls-1" d="m50.498,28.326c-6.119,0-11.078-4.959-11.078-11.082s4.959-11.078,11.078-11.078,11.082,4.959,11.082,11.078-4.963,11.082-11.082,11.082"/>
  <path class="cls-1" d="m316.505,28.326c-6.119,0-11.078-4.959-11.078-11.082s4.959-11.078,11.078-11.078,11.082,4.959,11.082,11.078-4.963,11.082-11.082,11.082"/>
  <path class="cls-1" d="m183.497,28.326c-6.119,0-11.082-4.959-11.082-11.082s4.963-11.078,11.082-11.078,11.078,4.959,11.078,11.078-4.959,11.082-11.078,11.082"/>
  <path class="cls-1" d="m449.504,28.326c-6.119,0-11.082-4.959-11.082-11.082s4.963-11.078,11.082-11.078,11.078,4.959,11.078,11.078-4.959,11.082-11.078,11.082"/>
  <path class="cls-1" d="m50.498,394.084c-6.119,0-11.078-4.963-11.078-11.082s4.959-11.078,11.078-11.078,11.082,4.959,11.082,11.078-4.963,11.082-11.082,11.082"/>
  <path class="cls-1" d="m316.505,394.084c-6.119,0-11.078-4.963-11.078-11.082s4.959-11.078,11.078-11.078,11.082,4.959,11.082,11.078-4.963,11.082-11.082,11.082"/>
  <path class="cls-1" d="m183.497,394.084c-6.119,0-11.082-4.963-11.082-11.082s4.963-11.078,11.082-11.078,11.078,4.959,11.078,11.078-4.959,11.082-11.078,11.082"/>
  <path class="cls-1" d="m449.504,394.084c-6.119,0-11.082-4.963-11.082-11.082s4.963-11.078,11.082-11.078,11.078,4.959,11.078,11.078-4.959,11.082-11.078,11.082"/>
  <path class="cls-1" d="m50.498,128.087c-6.119,0-11.078-4.959-11.078-11.078s4.959-11.082,11.078-11.082,11.082,4.963,11.082,11.082-4.963,11.078-11.082,11.078"/>
  <path class="cls-1" d="m316.505,128.087c-6.119,0-11.078-4.959-11.078-11.078s4.959-11.082,11.078-11.082,11.082,4.963,11.082,11.082-4.963,11.078-11.082,11.078"/>
  <path class="cls-1" d="m183.497,128.087c-6.119,0-11.082-4.959-11.082-11.078s4.963-11.082,11.082-11.082,11.078,4.963,11.078,11.082-4.959,11.078-11.078,11.078"/>
  <path class="cls-1" d="m449.504,128.087c-6.119,0-11.082-4.959-11.082-11.078s4.963-11.082,11.082-11.082,11.078,4.963,11.078,11.082-4.959,11.078-11.078,11.078"/>
  <path class="cls-1" d="m50.498,261.085c-6.119,0-11.078-4.963-11.078-11.082s4.959-11.082,11.078-11.082,11.082,4.963,11.082,11.082-4.963,11.082-11.082,11.082"/>
  <path class="cls-1" d="m449.504,261.085c-6.119,0-11.082-4.963-11.082-11.082s4.963-11.082,11.082-11.082,11.078,4.963,11.078,11.082-4.959,11.082-11.078,11.082"/>
  <path class="cls-1" d="m17.242,427.341c-6.119,0-11.078-4.963-11.078-11.082s4.959-11.078,11.078-11.078,11.082,4.959,11.082,11.078-4.959,11.082-11.082,11.082"/>
  <path class="cls-1" d="m283.248,427.341c-6.119,0-11.078-4.963-11.078-11.082s4.959-11.078,11.078-11.078,11.082,4.959,11.082,11.078-4.959,11.082-11.082,11.082"/>
  <path class="cls-1" d="m150.25,427.341c-6.119,0-11.082-4.963-11.082-11.082s4.963-11.078,11.082-11.078,11.082,4.959,11.082,11.078-4.963,11.082-11.082,11.082"/>
  <path class="cls-1" d="m416.256,427.341c-6.119,0-11.078-4.963-11.078-11.082s4.959-11.078,11.078-11.078,11.082,4.959,11.082,11.078-4.963,11.082-11.082,11.082"/>
  <path class="cls-1" d="m17.242,161.334c-6.119,0-11.078-4.963-11.078-11.082s4.959-11.082,11.078-11.082,11.082,4.963,11.082,11.082-4.959,11.082-11.082,11.082"/>
  <path class="cls-1" d="m283.248,161.334c-6.119,0-11.078-4.963-11.078-11.082s4.959-11.082,11.078-11.082,11.082,4.963,11.082,11.082-4.959,11.082-11.082,11.082"/>
  <path class="cls-1" d="m150.25,161.334c-6.119,0-11.082-4.963-11.082-11.082s4.963-11.082,11.082-11.082,11.082,4.963,11.082,11.082-4.963,11.082-11.082,11.082"/>
  <path class="cls-1" d="m416.256,161.334c-6.119,0-11.078-4.963-11.078-11.082s4.959-11.082,11.078-11.082,11.082,4.963,11.082,11.082-4.963,11.082-11.082,11.082"/>
  <path class="cls-1" d="m17.242,294.332c-6.119,0-11.078-4.959-11.078-11.082s4.959-11.078,11.078-11.078,11.082,4.959,11.082,11.078-4.959,11.082-11.082,11.082"/>
  <path class="cls-1" d="m17.242,28.326c-6.119,0-11.078-4.959-11.078-11.082s4.959-11.078,11.078-11.078,11.082,4.959,11.082,11.078-4.959,11.082-11.082,11.082"/>
  <path class="cls-1" d="m283.248,28.326c-6.119,0-11.078-4.959-11.078-11.082s4.959-11.078,11.078-11.078,11.082,4.959,11.082,11.078-4.959,11.082-11.082,11.082"/>
  <path class="cls-1" d="m150.25,28.326c-6.119,0-11.082-4.959-11.082-11.082s4.963-11.078,11.082-11.078,11.082,4.959,11.082,11.078-4.963,11.082-11.082,11.082"/>
  <path class="cls-1" d="m416.256,28.326c-6.119,0-11.078-4.959-11.078-11.082s4.959-11.078,11.078-11.078,11.082,4.959,11.082,11.078-4.963,11.082-11.082,11.082"/>
  <path class="cls-1" d="m17.242,394.084c-6.119,0-11.078-4.963-11.078-11.082s4.959-11.078,11.078-11.078,11.082,4.959,11.082,11.078-4.959,11.082-11.082,11.082"/>
  <path class="cls-1" d="m283.248,394.084c-6.119,0-11.078-4.963-11.078-11.082s4.959-11.078,11.078-11.078,11.082,4.959,11.082,11.078-4.959,11.082-11.082,11.082"/>
  <path class="cls-1" d="m150.25,394.084c-6.119,0-11.082-4.963-11.082-11.082s4.963-11.078,11.082-11.078,11.082,4.959,11.082,11.078-4.963,11.082-11.082,11.082"/>
  <path class="cls-1" d="m416.256,394.084c-6.119,0-11.078-4.963-11.078-11.082s4.959-11.078,11.078-11.078,11.082,4.959,11.082,11.078-4.963,11.082-11.082,11.082"/>
  <path class="cls-1" d="m17.242,128.087c-6.119,0-11.078-4.959-11.078-11.078s4.959-11.082,11.078-11.082,11.082,4.963,11.082,11.082-4.959,11.078-11.082,11.078"/>
  <path class="cls-1" d="m283.248,128.087c-6.119,0-11.078-4.959-11.078-11.078s4.959-11.082,11.078-11.082,11.082,4.963,11.082,11.082-4.959,11.078-11.082,11.078"/>
  <path class="cls-1" d="m150.25,128.087c-6.119,0-11.082-4.959-11.082-11.078s4.963-11.082,11.082-11.082,11.082,4.963,11.082,11.082-4.963,11.078-11.082,11.078"/>
  <path class="cls-1" d="m416.256,128.087c-6.119,0-11.078-4.959-11.078-11.078s4.959-11.082,11.078-11.082,11.082,4.963,11.082,11.082-4.963,11.078-11.082,11.078"/>
  <path class="cls-1" d="m17.242,261.085c-6.119,0-11.078-4.963-11.078-11.082s4.959-11.082,11.078-11.082,11.082,4.963,11.082,11.082-4.959,11.082-11.082,11.082"/>
  <path class="cls-1" d="m83.746,427.341c-6.119,0-11.082-4.963-11.082-11.082s4.963-11.078,11.082-11.078,11.078,4.959,11.078,11.078-4.959,11.082-11.078,11.082"/>
  <path class="cls-1" d="m349.752,427.341c-6.119,0-11.082-4.963-11.082-11.082s4.963-11.078,11.082-11.078,11.082,4.959,11.082,11.078-4.963,11.082-11.082,11.082"/>
  <path class="cls-1" d="m216.754,427.341c-6.123,0-11.082-4.963-11.082-11.082s4.959-11.078,11.082-11.078,11.078,4.959,11.078,11.078-4.959,11.082-11.078,11.082"/>
  <path class="cls-1" d="m482.758,427.341c-6.123,0-11.082-4.963-11.082-11.082s4.959-11.078,11.082-11.078,11.078,4.959,11.078,11.078-4.959,11.082-11.078,11.082"/>
  <path class="cls-1" d="m83.746,161.334c-6.119,0-11.082-4.963-11.082-11.082s4.963-11.082,11.082-11.082,11.078,4.963,11.078,11.082-4.959,11.082-11.078,11.082"/>
  <path class="cls-1" d="m349.752,161.334c-6.119,0-11.082-4.963-11.082-11.082s4.963-11.082,11.082-11.082,11.082,4.963,11.082,11.082-4.963,11.082-11.082,11.082"/>
  <path class="cls-1" d="m482.758,161.334c-6.123,0-11.082-4.963-11.082-11.082s4.959-11.082,11.082-11.082,11.078,4.963,11.078,11.082-4.959,11.082-11.078,11.082"/>
  <path class="cls-1" d="m83.746,294.332c-6.119,0-11.082-4.959-11.082-11.082s4.963-11.078,11.082-11.078,11.078,4.959,11.078,11.078-4.959,11.082-11.078,11.082"/>
  <path class="cls-1" d="m482.758,294.332c-6.123,0-11.082-4.959-11.082-11.082s4.959-11.078,11.082-11.078,11.078,4.959,11.078,11.078-4.959,11.082-11.078,11.082"/>
  <path class="cls-1" d="m83.746,28.326c-6.119,0-11.082-4.959-11.082-11.082s4.963-11.078,11.082-11.078,11.078,4.959,11.078,11.078-4.959,11.082-11.078,11.082"/>
  <path class="cls-1" d="m349.752,28.326c-6.119,0-11.082-4.959-11.082-11.082s4.963-11.078,11.082-11.078,11.082,4.959,11.082,11.078-4.963,11.082-11.082,11.082"/>
  <path class="cls-1" d="m216.754,28.326c-6.123,0-11.082-4.959-11.082-11.082s4.959-11.078,11.082-11.078,11.078,4.959,11.078,11.078-4.959,11.082-11.078,11.082"/>
  <path class="cls-1" d="m482.758,28.326c-6.123,0-11.082-4.959-11.082-11.082s4.959-11.078,11.082-11.078,11.078,4.959,11.078,11.078-4.959,11.082-11.078,11.082"/>
  <path class="cls-1" d="m83.746,394.084c-6.119,0-11.082-4.963-11.082-11.082s4.963-11.078,11.082-11.078,11.078,4.959,11.078,11.078-4.959,11.082-11.078,11.082"/>
  <path class="cls-1" d="m349.752,394.084c-6.119,0-11.082-4.963-11.082-11.082s4.963-11.078,11.082-11.078,11.082,4.959,11.082,11.078-4.963,11.082-11.082,11.082"/>
  <path class="cls-1" d="m482.758,394.084c-6.123,0-11.082-4.963-11.082-11.082s4.959-11.078,11.082-11.078,11.078,4.959,11.078,11.078-4.959,11.082-11.078,11.082"/>
  <path class="cls-1" d="m83.746,128.087c-6.119,0-11.082-4.959-11.082-11.078s4.963-11.082,11.082-11.082,11.078,4.963,11.078,11.082-4.959,11.078-11.078,11.078"/>
  <path class="cls-1" d="m349.752,128.087c-6.119,0-11.082-4.959-11.082-11.078s4.963-11.082,11.082-11.082,11.082,4.963,11.082,11.082-4.963,11.078-11.082,11.078"/>
  <path class="cls-1" d="m482.758,128.087c-6.123,0-11.082-4.959-11.082-11.078s4.959-11.082,11.082-11.082,11.078,4.963,11.078,11.082-4.959,11.078-11.078,11.078"/>
  <path class="cls-1" d="m482.758,261.085c-6.123,0-11.082-4.963-11.082-11.082s4.959-11.082,11.082-11.082,11.078,4.963,11.078,11.082-4.959,11.082-11.078,11.082"/>
</svg>