<svg id="Ebene_1" data-name="Ebene 1" xmlns="http://www.w3.org/2000/svg" viewBox="0 0 535.8 541"><path d="M303,254.1l-37-37-19.6,19.6L303,293.3l56.6-56.6-20.2-19ZM518.6,267a252,252,0,0,0-504,0c0,73.9,31.9,140,82.3,186.4a221.7,221.7,0,0,0,23,18.5A249.6,249.6,0,0,0,183.7,505a252.4,252.4,0,0,0,165.8,0,248.1,248.1,0,0,0,57.1-28.6l112,42.6L478.3,403.6c25.7-39.2,40.3-86.2,40.3-136.6ZM137.8,365a13.9,13.9,0,0,1,14-14h140a14,14,0,0,1,0,28h-140A13.9,13.9,0,0,1,137.8,365Zm295.1,91.2-30.2-11.7c-.6,0-.6.5-1.1.5a294.3,294.3,0,0,1-28,18.5,223.4,223.4,0,0,1-107,27.5,218.1,218.1,0,0,1-58.2-7.9,127.8,127.8,0,0,1-25.8-8.9c-5.6-2.3-11.2-5.1-16.8-7.9V407h28v14a14,14,0,0,0,28,0V407h70a42,42,0,0,0,0-84h-140a42.3,42.3,0,0,0-42,42c0,17.9,11.8,33.6,28,39.7v45.4c-2.2-1.7-4.5-2.8-6.2-4.5-7.8-5.6-14.5-11.8-21.8-18.5C68.4,386.2,42.6,329.7,42.6,267a224,224,0,0,1,448,0A221,221,0,0,1,466,368.3a211.2,211.2,0,0,1-19.1,30.8l11.2,31.4,14,40.9ZM140.6,254.1l-37-37L84,236.7l56.6,56.6,56.6-56.6-19.6-19.6Z"/></svg>